<?xml version="1.0" encoding="utf-8"?>
<!-- Generator: Adobe Illustrator 23.1.1, SVG Export Plug-In . SVG Version: 6.00 Build 0)  -->
<svg version="1.1" xmlns="http://www.w3.org/2000/svg" xmlns:xlink="http://www.w3.org/1999/xlink" x="0px" y="0px"
	 viewBox="0 0 1750 1750" style="enable-background:new 0 0 1750 1750;" xml:space="preserve">
<style type="text/css">
	.st0{fill:#FEFEFE;}
	.st1{fill:#1FAFF4;}
</style>
<g id="Layer_2">
	<rect class="st0" width="1750" height="1750"/>
</g>
<g id="Layer_1">
	<path class="st1" d="M109.42,1024.86c2.1-6.69,1.33-13.69,1.76-20.5c2.31-36.01,7.49-71.56,15.71-106.66
		c19.72-84.24,56.27-160.58,108.35-229.54c30.99-41.03,66.12-78.19,105.14-111.68c59.36-50.95,125.57-90.05,199.64-115.57
		c35.8-12.33,72.42-21.23,109.89-26.75c26.15-3.85,52.41-6,78.81-7.21c21.81-1,43.58-0.68,65.31,0.54
		c107.38,6.05,207.21,36.24,298.28,94.12c50.42,32.04,95.33,70.65,136,114.25c46.32,49.66,84.81,104.74,113.56,166.41
		c21.88,46.94,37.45,95.88,46.64,146.88c5.57,30.93,8.87,62.06,10.24,93.46c0.64,14.65,0.58,29.27,0.58,43.9
		c0.07,207.84,0.03,415.68,0.17,623.52c0,5.19-1.27,6.51-6.46,6.46c-32.47-0.31-64.96,0.43-97.41-0.43
		c-59.05-1.57-112.26-20.01-158.45-57.47c-13.6-11.03-26.32-22.93-37.44-36.48c-2.27-2.77-3.87-2.84-6.95-0.91
		c-58.49,36.77-121.31,63.19-188.73,78.54c-25.73,5.86-51.7,10.13-77.96,12.77c-28.65,2.89-57.35,4.4-86.13,3.64
		c-30.06-0.79-59.99-3.1-89.77-7.52c-51.23-7.61-100.75-21.19-148.48-41.26c-51.89-21.83-99.66-50.62-143.76-85.58
		c-22.98-18.22-44.78-37.75-65.24-58.72c-71.29-73.08-124.52-157.15-154.63-255.2c-10.04-32.68-17.34-65.95-21.86-99.85
		c-3.5-26.2-6.15-52.45-5.91-78.92c0.03-10.86,0.07-21.73,0.09-32.59c0-1.29,0.25-2.67-0.99-3.64
		C109.42,1030.19,109.42,1027.53,109.42,1024.86z M1159.57,1442.96c-0.55-2.86-0.85-4.66-1.25-6.43
		c-12.46-54.72-24.69-109.5-36.38-164.39c-0.55-2.6-0.15-4.74,1.24-7.07c7.25-12.1,13.99-24.49,20.07-37.23
		c20.88-43.78,33.82-89.85,39.14-138c2.82-25.48,3.05-51.07,1.31-76.68c-1.52-22.39-4.76-44.49-9.82-66.33
		c-15.72-67.83-46.07-128.32-91.11-181.42c-35.35-41.67-76.98-75.63-125.24-101.27c-69.35-36.84-143.27-53.7-221.84-50.2
		c-24.78,1.1-49.31,4-73.43,9.5c-97.83,22.31-178.82,72.32-241.89,150.28c-59.03,72.96-90.19,156.99-94.82,250.7
		c-1.86,37.66,1.49,75,9.74,111.83c17.16,76.56,52.61,143.56,106.1,200.87c37.84,40.55,82.07,72.5,132.38,95.97
		c55.82,26.05,114.66,38.97,176.12,40.12c16.77,0.31,33.51-0.82,50.23-2.53c26.8-2.75,53.04-8.05,78.82-15.77
		c43.9-13.15,84.55-33.01,122.11-59.22c2.27-1.58,4.2-2.62,7.25-1.56c39.88,13.87,80.15,26.56,120.39,39.32
		C1138.72,1436.62,1148.81,1439.64,1159.57,1442.96z M840.18,487.31c-20.57-0.05-37.58,15.03-39.27,33.26
		c-1.82,19.59,10.6,36.98,29.67,40.66c20.5,3.95,40.94,8.07,60.98,13.98c79.95,23.59,149.46,64.84,208.7,123.41
		c19.55,19.32,37.18,40.3,53.32,62.56c12.27,16.92,35.39,20.51,52.1,8.22c17.24-12.68,20.71-35.32,8.22-52.45
		c-27.95-38.35-59.97-72.87-96.24-103.48c-34.7-29.29-72.43-53.95-113.07-74.11c-41.43-20.55-84.8-35.73-129.98-45.67
		C862.65,491.05,850.65,488.58,840.18,487.31z"/>
	<path class="st1" d="M842.83,52.59c4.32,1.99,9.04,1.34,13.52,1.72c129.71,11.05,251.94,47.48,367.13,107.89
		c55.77,29.25,108.06,63.84,157.13,103.27c23.21,18.65,45.37,38.51,66.78,59.24c73.96,71.58,134.58,153.09,182.48,244.11
		c4.69,8.91,9.8,17.59,9.45,28.4c-0.51,15.97-11.77,30.93-27.09,34.87c-16.82,4.32-34.55-2.84-42.2-17.68
		c-15.61-30.28-32.51-59.78-51.3-88.2c-21.11-31.93-44.22-62.34-69.21-91.34c-20.67-23.98-42.6-46.74-65.7-68.34
		c-56.86-53.16-119.57-98.23-188.13-135.14c-69.85-37.6-143.39-65.44-220.61-83.5c-30.99-7.25-62.32-12.74-93.95-16.49
		c-15.99-1.9-32.04-3.07-48.05-4.7c-18.39-1.86-32.54-17.14-33.17-35.79c-0.62-18.18,13-34.44,31.32-37.38
		c0.68-0.11,1.29-0.23,1.59-0.93C836.17,52.59,839.5,52.59,842.83,52.59z"/>
	<path class="st1" d="M109.42,1032.85c1.24,0.96,0.99,2.35,0.99,3.64c-0.02,10.86-0.05,21.73-0.09,32.59
		c-0.31-0.07-0.61-0.15-0.91-0.25C109.42,1056.84,109.42,1044.85,109.42,1032.85z"/>
	<path class="st1" d="M1415.18,698.94c-12.25-0.74-23.44-6.35-30.33-18.73c-13.35-23.95-27.64-47.29-43.37-69.75
		c-26.71-38.13-56.84-73.34-90.72-105.22c-77.94-73.35-168.27-125.48-270.57-156.92c-36.96-11.36-74.55-19.83-112.86-25.01
		c-10.85-1.47-21.79-2.35-32.58-4.15c-15.96-2.66-29.05-17.44-29.89-33c-0.98-18.17,9.21-33.25,25.89-38.69
		c7.36-2.4,14.76-1.79,22.16-0.9c23.21,2.79,46.32,6.17,69.28,10.67c55.97,10.98,110.08,27.86,162.35,50.62
		c64.32,28,123.77,64.07,178.1,108.41c74.5,60.8,135.33,133.2,182.67,216.92c3.89,6.89,8.09,13.54,9.36,21.75
		C1458.15,677.36,1439.72,699.04,1415.18,698.94z"/>
	<path class="st1" d="M879.98,898.96c-41.5,0-75.27-33.89-75.08-75.66c0.19-40.3,31.91-74.92,75.23-74.89
		c42.87,0.02,75.33,33.66,75.32,75.33C955.44,866.71,920.72,899.04,879.98,898.96z"/>
</g>
</svg>
